<?xml version="1.0" standalone="no"?>
<!DOCTYPE svg PUBLIC "-//W3C//DTD SVG 20010904//EN"
 "http://www.w3.org/TR/2001/REC-SVG-20010904/DTD/svg10.dtd">
<svg version="1.0" xmlns="http://www.w3.org/2000/svg"
 width="843.000000pt" height="843.000000pt" viewBox="0 0 843.000000 843.000000"
 preserveAspectRatio="xMidYMid meet">

<g transform="translate(0.000000,843.000000) scale(0.100000,-0.100000)"
fill="#000000" stroke="none">
<path d="M0 8357 c0 -70 1 -73 24 -73 24 0 26 6 12 38 -4 9 -6 27 -3 40 3 17
5 14 6 -11 1 -33 2 -34 20 -17 11 10 17 24 14 31 -8 23 6 38 23 24 8 -6 14 -8
15 -3 0 5 4 0 9 -11 7 -16 9 -12 8 18 l-2 37 -63 0 -63 0 0 -73z"/>
<path d="M148 8423 c7 -3 16 -2 19 1 4 3 -2 6 -13 5 -11 0 -14 -3 -6 -6z"/>
<path d="M3802 8284 c-342 -37 -669 -121 -1047 -269 -181 -71 -337 -146 -571
-276 l-161 -90 -149 11 c-82 5 -406 10 -720 10 l-572 0 -12 -67 c-14 -81 -29
-120 -71 -178 l-32 -45 9 -652 c13 -907 19 -800 -59 -1008 -114 -306 -190
-634 -229 -995 -17 -158 -17 -700 0 -860 41 -387 110 -720 220 -1065 28 -85
52 -177 56 -205 3 -27 8 -403 12 -835 3 -432 9 -788 13 -792 9 -10 139 -12
746 -10 l549 3 37 -28 c20 -15 75 -59 121 -96 162 -133 455 -314 663 -412 417
-196 810 -302 1254 -336 184 -15 632 -6 811 15 505 60 1030 248 1480 530 75
47 250 173 365 263 l79 63 653 0 c510 0 654 3 660 13 4 6 8 406 8 887 l1 875
51 147 c153 436 246 1058 229 1528 -15 418 -97 900 -206 1216 -89 255 -83 217
-76 439 4 110 7 450 7 755 l1 555 -37 73 c-39 78 -65 153 -65 189 0 16 -8 25
-26 29 -15 4 -347 5 -738 2 l-711 -5 -95 57 c-177 107 -494 256 -705 332 -356
128 -641 194 -1010 233 -173 18 -562 18 -733 -1z m536 -1180 c30 -8 29 -21
-18 -204 -36 -143 -41 -174 -24 -157 4 4 29 84 55 178 27 95 50 173 51 175 2
1 57 -6 122 -17 269 -44 636 -163 643 -210 2 -8 -42 -66 -97 -129 -55 -63
-100 -121 -100 -127 0 -20 18 -15 38 8 96 117 202 229 216 229 14 0 162 -96
171 -110 8 -13 -22 -56 -107 -153 -37 -42 -68 -84 -68 -92 0 -8 2 -15 3 -15 2
0 51 47 109 105 58 58 111 105 118 105 24 0 71 -43 142 -128 90 -110 282 -303
328 -331 55 -33 73 -28 132 40 64 72 100 96 164 108 125 24 244 -59 244 -168
0 -58 -28 -108 -73 -130 -61 -30 -177 -143 -177 -172 0 -31 41 -76 165 -182
120 -103 309 -303 300 -317 -3 -5 -13 -10 -22 -10 -9 0 -59 -13 -112 -29 -53
-16 -138 -41 -188 -57 -51 -15 -93 -30 -93 -34 0 -3 6 -13 13 -22 11 -15 28
-12 184 36 229 71 243 73 282 41 37 -32 75 -91 68 -108 -2 -7 -69 -45 -148
-86 -204 -104 -269 -143 -269 -163 0 -10 4 -18 10 -18 26 0 255 106 374 173
37 21 72 35 75 30 51 -59 121 -832 79 -860 -7 -4 -95 -7 -195 -5 -151 3 -183
1 -183 -10 0 -34 28 -46 170 -71 80 -14 163 -33 184 -42 l39 -16 -6 -92 c-12
-171 -109 -617 -135 -617 -4 0 -17 7 -29 15 -12 9 -75 44 -140 79 -65 34 -144
77 -176 95 -62 33 -71 33 -80 1 -4 -17 8 -28 66 -62 39 -23 131 -70 204 -105
73 -35 133 -67 133 -71 0 -11 -70 -141 -79 -146 -4 -3 -20 4 -37 15 -38 27
-345 179 -360 179 -10 0 -29 -36 -52 -100 -4 -12 -2 -13 9 -3 7 7 19 13 27 13
15 0 382 -179 382 -186 0 -12 -134 -180 -230 -287 -117 -132 -210 -246 -210
-258 0 -14 42 -49 95 -79 28 -16 68 -47 89 -69 35 -36 40 -47 44 -99 5 -71
-11 -108 -65 -149 -33 -25 -44 -28 -112 -28 -106 1 -146 24 -273 154 -719 740
-721 742 -741 722 -15 -15 -19 -49 -7 -56 6 -3 10 -29 10 -56 0 -36 6 -56 20
-71 11 -12 31 -43 45 -70 14 -26 32 -56 41 -67 22 -26 74 -145 81 -185 5 -30
0 -37 -48 -77 -29 -24 -82 -72 -118 -106 -35 -35 -68 -63 -71 -63 -4 0 -13 7
-20 15 -24 29 -80 20 -360 -53 -276 -72 -472 -101 -690 -103 -213 -1 -332 21
-665 122 -195 58 -290 71 -331 45 -31 -21 -24 -25 -151 101 -87 86 -97 108
-68 150 25 36 95 174 95 187 0 7 10 24 23 38 13 14 29 40 36 59 7 19 17 43 21
54 15 39 8 139 -10 133 -5 -2 -71 -64 -147 -138 -76 -74 -170 -164 -208 -200
-39 -35 -169 -162 -291 -280 -248 -243 -275 -262 -382 -264 -81 -1 -120 18
-162 76 -24 33 -30 51 -30 94 0 65 21 92 146 189 46 36 89 75 94 86 10 17 -7
39 -139 177 -130 135 -290 328 -279 336 5 4 219 118 278 148 30 15 60 28 65
28 14 0 39 -49 74 -145 48 -134 60 -156 123 -224 44 -48 48 -50 79 -41 18 6
42 19 53 30 20 20 20 20 -22 77 -88 120 -171 251 -213 336 -25 49 -50 87 -58
87 -20 0 -291 -143 -351 -185 -28 -19 -51 -35 -53 -35 -7 0 -77 148 -77 163 0
8 20 22 47 32 77 28 364 177 370 191 2 7 0 22 -7 33 -11 21 -11 21 -63 -10
-91 -53 -369 -190 -374 -185 -9 9 -60 226 -87 373 -15 76 -29 184 -33 239 -5
94 -4 102 13 108 10 3 95 21 189 40 168 35 195 46 195 83 0 10 -10 12 -37 8
-21 -3 -110 -7 -197 -8 l-159 -2 -8 29 c-23 83 49 771 84 821 11 14 36 4 215
-80 112 -52 212 -95 223 -95 13 0 19 7 19 23 0 19 -27 35 -201 116 -110 52
-203 100 -206 107 -6 17 21 66 62 109 33 36 37 37 83 31 26 -3 106 -24 176
-46 162 -50 198 -57 214 -37 7 8 9 17 5 20 -26 15 -272 87 -336 98 -43 7 -77
17 -77 21 0 8 210 222 362 369 110 106 110 106 103 128 -10 32 -155 161 -187
168 -77 15 -112 162 -56 235 48 63 141 91 228 68 36 -9 62 -29 130 -97 78 -79
87 -85 117 -80 59 10 120 65 298 272 97 113 181 207 186 211 15 9 46 -15 160
-123 86 -81 104 -95 108 -78 3 15 -22 45 -97 115 -108 103 -128 130 -110 148
7 7 17 12 23 12 5 0 38 18 73 40 34 22 66 40 70 40 17 0 166 -169 206 -234 12
-19 21 -25 28 -18 10 10 -5 32 -151 219 -23 28 -41 54 -41 57 0 8 116 60 225
103 169 65 544 148 566 126 4 -5 17 -44 28 -88 42 -164 72 -269 76 -274 12
-11 3 54 -25 184 -39 183 -39 183 8 188 63 6 276 7 300 1z m-1355 -4720 c42
-24 77 -49 77 -55 0 -14 -22 -56 -94 -179 -34 -58 -72 -130 -86 -160 -13 -30
-25 -56 -26 -58 -5 -8 -204 221 -204 234 0 2 21 25 48 51 26 27 78 85 117 131
38 45 74 82 80 82 5 0 45 -21 88 -46z m2490 6 c9 -11 17 -25 17 -30 0 -6 7
-10 15 -10 8 0 24 -9 35 -20 11 -11 22 -20 25 -20 10 0 75 -63 75 -73 0 -6 11
-24 24 -42 l24 -31 -92 -100 c-51 -54 -96 -108 -99 -118 -10 -25 -19 -14 -47
57 -12 32 -54 110 -91 174 -38 63 -69 120 -69 127 0 6 17 21 38 34 20 13 52
34 71 47 41 30 52 31 74 5z m-2345 -130 c7 -12 47 -43 90 -71 42 -28 79 -52
81 -54 14 -14 -248 -325 -273 -325 -6 0 -28 19 -48 41 -27 30 -38 51 -38 73 0
27 40 116 122 267 14 25 27 56 31 68 7 27 19 27 35 1z m2151 -69 c41 -63 105
-206 116 -257 5 -27 1 -38 -26 -68 -62 -71 -56 -74 -210 80 -77 76 -139 143
-138 149 0 5 38 34 84 64 47 30 92 62 101 73 10 10 21 18 26 18 5 0 26 -27 47
-59z m-1657 -153 c141 -22 239 -32 321 -33 100 0 117 -2 114 -15 -3 -8 -26
-94 -51 -190 -26 -96 -55 -188 -65 -205 -15 -27 -21 -29 -61 -27 -144 9 -750
178 -750 210 0 12 115 157 177 222 45 49 73 70 89 70 13 0 115 -14 226 -32z
m1390 -65 c50 -49 112 -114 140 -145 l49 -57 -38 -19 c-153 -78 -623 -196
-730 -183 -12 1 -40 85 -63 191 -7 30 -25 97 -41 148 -16 51 -29 94 -29 95 0
1 69 3 153 4 111 1 191 8 297 26 80 14 151 25 159 26 7 1 54 -38 103 -86z
m-816 37 c38 0 45 -4 59 -30 20 -38 98 -398 91 -417 -5 -11 -37 -13 -163 -11
l-158 3 -4 25 c-1 14 2 47 8 75 6 27 18 86 27 130 41 213 51 241 82 230 8 -3
33 -5 58 -5z"/>
<path d="M3868 6175 c-3 -3 -26 -6 -52 -7 -25 0 -46 -4 -46 -7 0 -17 61 -101
81 -111 26 -14 167 -9 245 9 50 12 52 14 63 56 6 24 11 49 11 54 0 11 -291 16
-302 6z"/>
<path d="M4274 6128 c4 -29 13 -59 20 -66 18 -19 240 -21 283 -4 29 13 103 94
103 113 0 5 -9 5 -19 1 -11 -4 -62 -4 -113 0 -51 3 -135 7 -187 7 l-94 1 7
-52z"/>
<path d="M3600 6046 c-36 -13 -90 -33 -120 -44 -30 -11 -88 -31 -128 -42 -47
-15 -78 -30 -87 -44 -8 -12 -33 -71 -55 -131 -22 -61 -50 -123 -61 -138 -11
-16 -19 -31 -16 -33 6 -6 431 195 548 259 139 76 134 66 60 134 -35 32 -67 59
-70 60 -3 2 -35 -8 -71 -21z"/>
<path d="M4695 6008 c-38 -34 -71 -64 -72 -67 -7 -17 223 -141 514 -275 112
-51 153 -65 153 -51 0 3 -18 38 -39 78 -21 40 -52 112 -68 161 -20 63 -34 91
-48 96 -11 4 -87 27 -170 50 -82 23 -160 48 -172 56 -12 8 -24 14 -25 13 -2 0
-34 -28 -73 -61z"/>
<path d="M4060 5936 c-47 -16 -143 -60 -215 -98 -71 -37 -224 -114 -340 -170
-432 -212 -470 -232 -470 -253 0 -25 77 -77 309 -210 198 -113 448 -271 582
-369 95 -68 95 -68 150 -64 30 3 60 10 66 16 13 13 25 1167 12 1174 -5 2 -47
-9 -94 -26z"/>
<path d="M4274 5949 c-9 -16 -10 -1107 0 -1146 7 -30 11 -33 47 -33 51 0 55 2
223 123 190 136 361 247 549 355 168 97 277 168 277 180 0 12 -93 70 -146 91
-87 34 -409 192 -605 298 -226 122 -327 161 -345 132z"/>
<path d="M5420 5301 c-67 -26 -109 -49 -285 -152 -199 -118 -523 -332 -604
-400 -84 -70 -87 -77 -55 -141 20 -38 28 -74 32 -126 l5 -72 51 -42 c28 -23
80 -70 116 -104 36 -33 75 -64 87 -68 13 -4 78 2 145 13 139 23 527 76 633 86
39 4 73 9 76 11 3 1 -5 44 -17 94 -35 136 -43 254 -37 522 5 208 3 248 -10
280 -16 38 -75 119 -86 117 -3 0 -26 -9 -51 -18z"/>
<path d="M2885 5244 c-59 -89 -65 -121 -66 -358 0 -226 -8 -294 -54 -468 -16
-59 -27 -110 -24 -112 2 -2 51 -9 109 -16 239 -26 464 -52 617 -71 l163 -21
67 59 c38 33 98 81 136 107 37 26 67 52 67 59 3 128 7 155 30 196 l25 43 -59
54 c-88 80 -210 163 -489 332 -269 163 -403 236 -453 246 -30 7 -34 4 -69 -50z"/>
<path d="M5688 5135 c25 -47 108 -127 126 -124 15 3 2 19 -59 74 -43 38 -73
61 -67 50z"/>
<path d="M2636 5078 c-49 -56 -68 -88 -50 -88 11 0 85 83 100 112 26 50 9 42
-50 -24z"/>
<path d="M2694 4945 c-5 -11 -34 -60 -67 -110 -61 -93 -130 -222 -153 -287
-12 -36 -12 -39 35 -116 26 -44 53 -94 61 -111 7 -17 18 -30 24 -28 38 12 92
180 116 360 20 153 9 357 -16 292z"/>
<path d="M5663 4768 c7 -194 15 -259 49 -376 35 -122 67 -115 157 36 49 81 49
84 37 120 -25 71 -118 246 -159 300 -23 30 -49 65 -57 78 -8 13 -19 24 -24 24
-5 0 -7 -75 -3 -182z"/>
<path d="M1925 4252 c-3 -3 -5 -12 -5 -20 0 -13 18 -14 119 -9 143 6 186 21
90 31 -72 8 -195 6 -204 -2z"/>
<path d="M6255 4251 c-52 -9 -29 -17 85 -31 101 -12 101 -12 119 -1 12 8 12
12 2 25 -10 12 -31 16 -90 15 -42 -1 -94 -5 -116 -8z"/>
<path d="M5863 4136 c-155 -199 -363 -531 -363 -577 0 -9 35 -10 138 -6 169 8
198 15 195 48 -26 335 -9 436 94 575 23 31 30 54 16 54 -5 -1 -40 -43 -80 -94z"/>
<path d="M2460 4186 c0 -4 12 -30 26 -59 64 -125 68 -146 69 -357 l0 -194 45
-8 c25 -4 101 -9 170 -10 112 -3 125 -1 122 14 -6 39 -85 159 -248 378 -191
255 -184 246 -184 236z"/>
<path d="M2678 4183 c-29 -3 -48 -9 -48 -16 0 -14 60 -101 235 -342 66 -91
129 -181 140 -200 11 -19 24 -35 28 -35 12 0 497 485 497 497 0 6 -72 20 -161
32 -154 21 -638 73 -642 69 -1 -1 -23 -3 -49 -5z"/>
<path d="M5470 4168 c-312 -26 -600 -63 -600 -78 0 -27 482 -516 498 -506 5 3
29 38 52 78 24 40 94 147 155 238 177 261 191 292 128 287 -15 -1 -120 -10
-233 -19z"/>
<path d="M4124 4080 c-22 -3 -55 -15 -72 -26 -51 -32 -747 -720 -829 -817 -40
-49 -73 -92 -73 -95 0 -4 64 -27 143 -51 78 -24 203 -64 277 -88 74 -24 178
-52 230 -63 117 -24 312 -45 334 -37 14 6 16 46 16 384 1 328 6 455 21 467 2
2 18 6 35 9 28 5 33 3 39 -21 4 -15 9 -208 12 -428 l5 -402 30 -6 c32 -6 174
7 260 25 84 17 147 36 413 121 138 44 256 81 263 84 20 6 15 18 -34 80 -57 75
-808 813 -854 841 -38 22 -142 34 -216 23z"/>
<path d="M6261 3294 c0 -11 3 -14 6 -6 3 7 2 16 -1 19 -3 4 -6 -2 -5 -13z"/>
<path d="M6231 3273 c-1 -7 -5 -12 -10 -10 -6 1 -25 -23 -43 -53 -19 -30 -71
-101 -117 -158 l-83 -104 23 -24 c30 -32 42 -30 78 14 17 20 37 45 46 55 8 9
15 21 15 25 0 5 11 19 25 32 14 13 25 30 25 37 0 8 9 26 20 41 11 15 22 36 25
47 2 11 9 35 14 54 6 19 8 37 6 40 -3 2 -5 -2 -6 -10 0 -8 -4 -6 -9 6 -5 11
-9 14 -9 8z"/>
<path d="M60 8270 c0 -5 7 -10 16 -10 8 0 12 5 9 10 -3 6 -10 10 -16 10 -5 0
-9 -4 -9 -10z"/>
<path d="M1 8254 c0 -11 3 -14 6 -6 3 7 2 16 -1 19 -3 4 -6 -2 -5 -13z"/>
</g>
</svg>
